/* XPM */
static const char *app_icon[] = {
/* columns rows colors chars-per-pixel */
"16 16 50 1 ",
"  c None",
". c #BADB31",
"X c #BBDB32",
"o c #B8DB34",
"O c #BCDD35",
"+ c #BEDF3B",
"@ c #9FD75F",
"# c #B1D941",
"$ c #A4D755",
"% c #A4D756",
"& c #98D669",
"* c #8ED479",
"= c #BDE871",
"- c #C3E446",
"; c #C4E448",
": c #C9E853",
"> c #CCEB5A",
", c #CDEC5E",
"< c #CEEC5E",
"1 c #CEED5F",
"2 c #CBEC63",
"3 c #CDED60",
"4 c #62808C",
"5 c #77959E",
"6 c #5C93A6",
"7 c #579EB5",
"8 c #7AD09B",
"9 c #65CDBE",
"0 c #78D5BD",
"q c #53A9C5",
"w c #52ABC7",
"e c #4BBFE3",
"r c #56CAD9",
"t c #6AD1CB",
"y c #65D0D0",
"u c #4BC0E3",
"i c #48C7EF",
"p c #4BC8EB",
"a c #4CC9E9",
"s c #48C8EF",
"d c #48C9EF",
"f c #51CBE5",
"g c #76D6F3",
"h c #9EDF91",
"j c #94DD9E",
"k c #A6E289",
"l c #A1E08F",
"z c #8BDBA7",
"x c #D7DDE1",
"c c #D7DEE2",
/* pixels */
"c cc c cc c cc c",
"                ",
"c          555 c",
"c           45 c",
"          q4 5  ",
"ssssssssds7q   c",
"ssggsssse6ii    ",
"ssggssssdusi   c",
"ssifassytisi   x",
"ssi*&af=20si    ",
"ss8..&k133zi   x",
"s9...-11311j    ",
"r#..+111111l   x",
"$..O>111111l   x",
"...:1111113l    ",
"$.;11111111hxx x"
};
